HIERARCHY
ROOT Hips
{
 OFFSET 0.000000 0.000000 0.000000
 CHANNELS 6 Xposition Yposition Zposition Yrotation Xrotation Zrotation
 JOINT Chest
 {
  OFFSET 0.000000 9.585900 0.002600
  CHANNELS 3 Yrotation Xrotation Zrotation
  JOINT Chest2
  {
   OFFSET 0.000000 9.601200 -0.005300
   CHANNELS 3 Yrotation Xrotation Zrotation
   JOINT Chest3
   {
    OFFSET 0.000000 9.561800 0.000000
    CHANNELS 3 Yrotation Xrotation Zrotation
    JOINT Chest4
    {
     OFFSET 0.000000 9.552100 0.000000
     CHANNELS 3 Yrotation Xrotation Zrotation
     JOINT Neck
     {
      OFFSET 0.000000 14.453000 0.000000
      CHANNELS 3 Yrotation Xrotation Zrotation
      JOINT Head
      {
       OFFSET 0.000000 8.936500 -0.011300
       CHANNELS 3 Yrotation Xrotation Zrotation
       End Site
       {
        OFFSET 0.000000 17.073600 -0.006000
       }
      }
     }
     JOINT RightCollar
     {
      OFFSET -2.921100 9.558500 0.000000
      CHANNELS 3 Yrotation Xrotation Zrotation
      JOINT RightShoulder
      {
       OFFSET -13.519700 0.000000 0.000000
       CHANNELS 3 Yrotation Xrotation Zrotation
       JOINT RightElbow
       {
        OFFSET 0.000000 -29.696600 0.000000
        CHANNELS 3 Yrotation Xrotation Zrotation
        JOINT RightWrist
        {
         OFFSET 0.000000 -24.004700 0.000000
         CHANNELS 3 Yrotation Xrotation Zrotation
         End Site
         {
          OFFSET 0.000000 -17.728500 0.000000
         }
        }
       }
      }
     }
     JOINT LeftCollar
     {
      OFFSET 2.921100 9.558500 0.000000
      CHANNELS 3 Yrotation Xrotation Zrotation
      JOINT LeftShoulder
      {
       OFFSET 13.519700 0.000000 0.000000
       CHANNELS 3 Yrotation Xrotation Zrotation
       JOINT LeftElbow
       {
        OFFSET 0.000000 -29.696600 0.000000
        CHANNELS 3 Yrotation Xrotation Zrotation
        JOINT LeftWrist
        {
         OFFSET 0.000000 -24.004700 0.000000
         CHANNELS 3 Yrotation Xrotation Zrotation
         End Site
         {
          OFFSET 0.000000 -17.728500 0.000000
         }
        }
       }
      }
     }
    }
   }
  }
 }
 JOINT RightHip
 {
  OFFSET -7.771700 -0.012900 -0.001300
  CHANNELS 3 Yrotation Xrotation Zrotation
  JOINT RightKnee
  {
   OFFSET 0.000000 -40.869800 0.001200
   CHANNELS 3 Yrotation Xrotation Zrotation
   JOINT RightAnkle
   {
    OFFSET 0.000000 -39.717900 0.002100
    CHANNELS 3 Yrotation Xrotation Zrotation
    JOINT RightToe
    {
     OFFSET 0.000000 -4.965400 11.033500
     CHANNELS 3 Yrotation Xrotation Zrotation
     End Site
     {
      OFFSET 0.000000 -1.423100 5.872300
     }
    }
   }
  }
 }
 JOINT LeftHip
 {
  OFFSET 7.771700 -0.012900 -0.001300
  CHANNELS 3 Yrotation Xrotation Zrotation
  JOINT LeftKnee
  {
   OFFSET 0.000000 -40.869800 0.001200
   CHANNELS 3 Yrotation Xrotation Zrotation
   JOINT LeftAnkle
   {
    OFFSET 0.000000 -39.717900 0.002100
    CHANNELS 3 Yrotation Xrotation Zrotation
    JOINT LeftToe
    {
     OFFSET 0.000000 -4.965400 11.033500
     CHANNELS 3 Yrotation Xrotation Zrotation
     End Site
     {
      OFFSET 0.000000 -1.423100 5.872300
     }
    }
   }
  }
 }
}
MOTION
Frames: 8
Frame Time: 0.008333
-83.975030 57.991851 89.263195 174.268910 -29.313943 -0.937136 2.723931 17.392019 2.441183 0.251371 1.889736 0.233459 0.418639 3.140589 0.394989 2.298522 15.213478 2.170681 2.284683 9.642983 -2.772530 5.718044 -17.687018 -6.436523 0.766280 -2.070678 -0.444169 -7.510718 -10.524757 -3.635694 -102.090241 -41.338750 106.738871 -11.733147 -16.004194 -44.482412 -4.610765 -1.324291 -1.734060 24.735703 -9.546499 -9.645406 84.195406 -30.570265 -95.721934 20.045735 -21.270913 28.818424 4.369770 -46.828170 -2.006408 -7.709153 68.328970 -8.714315 9.581427 24.590078 3.608161 -0.386708 -17.567868 2.494020 -6.086267 -43.226109 3.182094 28.103748 67.568330 27.102912 -15.225587 2.613173 -2.489527 0.052757 0.137943 0.020691
-83.977892 57.992448 89.262602 174.269123 -29.312876 -0.935747 2.716135 17.393524 2.440464 0.251269 1.889877 0.233906 0.421897 3.139438 0.393537 2.298285 15.213315 2.172622 2.282272 9.642365 -2.781949 5.724362 -17.688033 -6.465246 0.768004 -2.075529 -0.451457 -7.512891 -10.555558 -3.672826 -102.384871 -41.749683 107.083417 -11.711499 -15.789373 -44.159733 -4.611092 -1.329528 -1.739934 24.737365 -9.545755 -9.638592 84.217249 -30.583651 -95.734592 20.046059 -21.259904 28.839681 4.374336 -46.827366 -2.006662 -7.694043 68.329056 -8.705809 9.562099 24.585667 3.609093 -0.387673 -17.564076 2.498071 -6.090390 -43.225165 3.179046 28.103272 67.565330 27.100180 -15.218991 2.614436 -2.487453 0.052758 0.138078 0.018430
-83.979797 57.993196 89.261977 174.268038 -29.313014 -0.938581 2.713618 17.392032 2.442479 0.250640 1.890030 0.234451 0.421023 3.139707 0.394109 2.293742 15.214219 2.175065 2.278578 9.635780 -2.798766 5.737892 -17.683857 -6.483926 0.776437 -2.081695 -0.462268 -7.510792 -10.588830 -3.713610 -102.680370 -42.162448 107.427732 -11.684603 -15.591104 -43.871616 -4.604872 -1.332465 -1.746157 24.739702 -9.546269 -9.633633 84.226924 -30.588352 -95.738790 20.040206 -21.257305 28.854776 4.372759 -46.825673 -1.997760 -7.682159 68.327593 -8.702978 9.556455 24.583396 3.614712 -0.386149 -17.562736 2.499809 -6.094941 -43.223201 3.182700 28.108184 67.563945 27.105110 -15.218248 2.611444 -2.488184 0.041233 0.140015 0.018205
-83.981739 57.993941 89.261494 174.264244 -29.312992 -0.939093 2.712385 17.389911 2.444424 0.242865 1.885970 0.236056 0.426730 3.142381 0.392579 2.288457 15.212747 2.175786 2.286052 9.638793 -2.806684 5.747494 -17.684385 -6.508520 0.794948 -2.080942 -0.470475 -7.511695 -10.630139 -3.764224 -102.978883 -42.568123 107.768098 -11.658575 -15.400233 -43.590290 -4.595905 -1.328479 -1.751835 24.744528 -9.551128 -9.628997 84.245972 -30.602358 -95.757285 20.033734 -21.246069 28.887860 4.373705 -46.826349 -1.994665 -7.673154 68.327069 -8.698905 9.568657 24.589178 3.616619 -0.392641 -17.568820 2.506545 -6.096175 -43.221201 3.185080 28.114498 67.561637 27.110328 -15.213912 2.610158 -2.487889 0.043097 0.139908 0.018230
-83.984273 57.994667 89.261149 174.258241 -29.312773 -0.934277 2.709183 17.386611 2.441973 0.246888 1.887851 0.234797 0.421959 3.139177 0.394065 2.286254 15.211144 2.175825 2.292046 9.643003 -2.814017 5.758037 -17.683427 -6.531784 0.815276 -2.083534 -0.478737 -7.512159 -10.670959 -3.819120 -103.286585 -42.963473 108.110290 -11.630426 -15.207383 -43.299993 -4.589946 -1.323691 -1.756790 24.742379 -9.555774 -9.629682 84.270608 -30.620084 -95.782844 20.005796 -21.231916 28.916305 4.381381 -46.827459 -1.996911 -7.674986 68.326309 -8.704832 9.571371 24.594705 3.619266 -0.383640 -17.573809 2.506061 -6.089241 -43.217421 3.177512 28.119578 67.555134 27.116653 -15.208247 2.607870 -2.486497 0.039929 0.142545 0.016168
-83.986458 57.995019 89.261764 174.257475 -29.307488 -0.933917 2.703246 17.378680 2.438192 0.250233 1.889670 0.236694 0.419316 3.137650 0.394419 2.286246 15.210111 2.176220 2.293419 9.644890 -2.822306 5.764113 -17.679040 -6.548401 0.820527 -2.081111 -0.481411 -7.496288 -10.723615 -3.874362 -103.605808 -43.353909 108.461883 -11.594326 -15.015226 -43.008593 -4.591153 -1.332648 -1.763586 24.741759 -9.563849 -9.619261 84.280554 -30.625205 -95.784152 20.003305 -21.227305 28.933185 4.382074 -46.834557 -1.996342 -7.694979 68.325616 -8.728691 9.580697 24.599917 3.623730 -0.383718 -17.578578 2.506987 -6.085350 -43.222300 3.175581 28.122340 67.549199 27.122940 -15.217516 2.613425 -2.489446 0.047976 0.140057 0.017182
-83.988174 57.995826 89.261921 174.257289 -29.306832 -0.935599 2.703049 17.376859 2.436125 0.250641 1.888479 0.234601 0.420885 3.139185 0.399220 2.293238 15.206828 2.172891 2.287964 9.648060 -2.823982 5.766815 -17.680300 -6.582744 0.824592 -2.082942 -0.477365 -7.491877 -10.760064 -3.913719 -103.943518 -43.748948 108.844676 -11.556502 -14.829434 -42.721090 -4.599200 -1.331470 -1.758399 24.745376 -9.566127 -9.617548 84.287817 -30.627271 -95.806449 19.991543 -21.225115 28.938561 4.381867 -46.835152 -1.996287 -7.696082 68.324570 -8.729565 9.581978 24.605211 3.624786 -0.382965 -17.583197 2.507259 -6.084652 -43.222446 3.176793 28.120220 67.547382 27.121986 -15.219592 2.616524 -2.489164 0.049504 0.138024 0.018919
-83.989556 57.996386 89.262864 174.253128 -29.301942 -0.936882 2.707890 17.370327 2.436392 0.251104 1.888154 0.234496 0.419503 3.139033 0.396758 2.298044 15.206717 2.177204 2.287387 9.646692 -2.833039 5.762293 -17.681702 -6.589491 0.832258 -2.094314 -0.479819 -7.496182 -10.760792 -3.924715 -104.307838 -44.152836 109.278567 -11.523119 -14.650968 -42.435770 -4.600719 -1.331046 -1.757408 24.745837 -9.566769 -9.616131 84.297621 -30.629764 -95.839013 19.993449 -21.226337 28.933447 4.384666 -46.839518 -1.994071 -7.717589 68.319797 -8.750312 9.590047 24.611526 3.629829 -0.384012 -17.586714 2.505744 -6.082547 -43.226649 3.180661 28.134953 67.539655 27.134784 -15.224407 2.625144 -2.485458 0.046343 0.134021 0.017170
